<svg preserveAspectRatio="none" width="100%" height="100%" overflow="visible" style="display: block;" viewBox="0 0 27.2271 20.9904" fill="none" xmlns="http://www.w3.org/2000/svg">
<g id="diamond copy">
<path id="Triangle" fill-rule="evenodd" clip-rule="evenodd" d="M22.6923 2.43187e-05L27.2271 6.9968H18.1575L22.6923 2.43187e-05Z" fill="var(--fill-0, #744ECE)"/>
<path id="Triangle Copy 6" fill-rule="evenodd" clip-rule="evenodd" d="M13.6136 20.9904L27.2181 6.9968H18.1484L13.6136 20.9904Z" fill="var(--fill-0, #5D3CAF)"/>
<path id="Triangle Copy" fill-rule="evenodd" clip-rule="evenodd" d="M13.6136 2.43187e-05L18.1484 6.9968H9.07873L13.6136 2.43187e-05Z" fill="var(--fill-0, #A37DFF)"/>
<path id="Triangle Copy 5" fill-rule="evenodd" clip-rule="evenodd" d="M13.609 20.9904L18.1439 6.9968H9.0742L13.609 20.9904Z" fill="var(--fill-0, #744ECE)"/>
<path id="Triangle Copy 3" fill-rule="evenodd" clip-rule="evenodd" d="M9.0742 6.9968L13.609 2.4148e-05H4.53937L9.0742 6.9968Z" fill="var(--fill-0, #C4ABFF)"/>
<path id="Triangle Copy 4" fill-rule="evenodd" clip-rule="evenodd" d="M18.1529 6.9968L22.6878 2.4148e-05H13.6181L18.1529 6.9968Z" fill="var(--fill-0, #5D3CAF)"/>
<path id="Triangle Copy 2" fill-rule="evenodd" clip-rule="evenodd" d="M4.53483 2.43187e-05L9.06967 6.9968H0L4.53483 2.43187e-05Z" fill="var(--fill-0, #EEE6FF)"/>
<path id="Triangle Copy 7" fill-rule="evenodd" clip-rule="evenodd" d="M13.6045 20.9904L9.06967 6.9968H0L13.6045 20.9904Z" fill="var(--fill-0, #C4ABFF)"/>
</g>
</svg>
