<svg preserveAspectRatio="none" width="100%" height="100%" overflow="visible" style="display: block;" viewBox="0 0 14.5833 16.4582" fill="none" xmlns="http://www.w3.org/2000/svg">
<g id="Vector">
<path d="M7.29167 5.83318C7.98202 5.83318 8.54167 5.27354 8.54167 4.58318C8.54167 3.89282 7.98202 3.33318 7.29167 3.33318C6.60131 3.33318 6.04167 3.89282 6.04167 4.58318C6.04167 5.27354 6.60131 5.83318 7.29167 5.83318Z" fill="black"/>
<path fill-rule="evenodd" clip-rule="evenodd" d="M10.4167 10.8332C10.4167 10.488 10.6965 10.2082 11.0417 10.2082H12.7083C13.7439 10.2082 14.5833 11.0476 14.5833 12.0832C14.5833 13.1187 13.7439 13.9582 12.7083 13.9582H1.875C1.52982 13.9582 1.25 14.238 1.25 14.5832C1.25 14.9284 1.52982 15.2082 1.875 15.2082H11.875C12.2202 15.2082 12.5 15.488 12.5 15.8332C12.5 16.1784 12.2202 16.4582 11.875 16.4582H1.875C0.839466 16.4582 0 15.6187 0 14.5832C0 13.5476 0.839466 12.7082 1.875 12.7082H12.7083C13.0535 12.7082 13.3333 12.4284 13.3333 12.0832C13.3333 11.738 13.0535 11.4582 12.7083 11.4582H11.0417C10.6965 11.4582 10.4167 11.1784 10.4167 10.8332Z" fill="black"/>
<path fill-rule="evenodd" clip-rule="evenodd" d="M7.27017 0.000369512C7.28449 -0.000123171 7.29883 -0.000123171 7.31315 0.000369512C10.554 0.111857 12.5485 3.03342 11.6909 6.08563C10.999 8.54813 9.19976 10.3263 7.63347 11.3495C7.42579 11.4852 7.15753 11.4852 6.94985 11.3495C5.38356 10.3263 3.58427 8.54809 2.89241 6.0856C2.03487 3.03338 4.02933 0.111856 7.27017 0.000369512ZM7.29166 1.25043C4.91267 1.34453 3.44867 3.44411 4.09582 5.74749C4.63221 7.65664 5.98117 9.12799 7.29166 10.0688C8.60216 9.12799 9.95111 7.65667 10.4875 5.74752C11.1347 3.44414 9.67064 1.34453 7.29166 1.25043Z" fill="black"/>
</g>
</svg>
