<svg preserveAspectRatio="none" width="100%" height="100%" overflow="visible" style="display: block;" viewBox="0 0 16.25 16.25" fill="none" xmlns="http://www.w3.org/2000/svg">
<g id="Vector">
<path fill-rule="evenodd" clip-rule="evenodd" d="M12.0146 5.81845C12.2529 6.06814 12.2437 6.46376 11.994 6.7021L7.41069 11.0771C7.16917 11.3076 6.7891 11.3076 6.54759 11.0771L4.25595 8.88959C4.00626 8.65126 3.99707 8.25564 4.23541 8.00595C4.47374 7.75627 4.86936 7.74707 5.11905 7.98541L6.97914 9.76097L11.131 5.7979C11.3806 5.55957 11.7763 5.56877 12.0146 5.81845Z" fill="black"/>
<path fill-rule="evenodd" clip-rule="evenodd" d="M8.125 1.25C4.32804 1.25 1.25 4.32804 1.25 8.125C1.25 11.922 4.32804 15 8.125 15C11.922 15 15 11.922 15 8.125C15 4.32804 11.922 1.25 8.125 1.25ZM0 8.125C0 3.63769 3.63769 0 8.125 0C12.6123 0 16.25 3.63769 16.25 8.125C16.25 12.6123 12.6123 16.25 8.125 16.25C3.63769 16.25 0 12.6123 0 8.125Z" fill="black"/>
</g>
</svg>
