<svg preserveAspectRatio="none" width="100%" height="100%" overflow="visible" style="display: block;" viewBox="0 0 16.25 16.25" fill="none" xmlns="http://www.w3.org/2000/svg">
<g id="Vector">
<path fill-rule="evenodd" clip-rule="evenodd" d="M8.125 0C3.63769 0 0 3.63769 0 8.125C0 12.6123 3.63769 16.25 8.125 16.25C12.6123 16.25 16.25 12.6123 16.25 8.125C16.25 3.63769 12.6123 0 8.125 0ZM5.93669 1.6056C3.4019 2.45608 1.52643 4.74346 1.27803 7.5H4.38591C4.45022 5.6643 4.7959 3.99061 5.34074 2.71809C5.51496 2.31119 5.71363 1.93573 5.93669 1.6056ZM10.3133 1.6056C10.5364 1.93573 10.735 2.31119 10.9093 2.71809C11.4541 3.99061 11.7998 5.6643 11.8641 7.5H14.972C14.7236 4.74346 12.8481 2.45608 10.3133 1.6056ZM10.6133 7.5C10.5493 5.80374 10.2283 4.30356 9.76016 3.21009C9.49722 2.59597 9.20017 2.13895 8.90216 1.84456C8.60682 1.5528 8.34491 1.45136 8.125 1.45136C7.90509 1.45136 7.64318 1.5528 7.34784 1.84456C7.04983 2.13895 6.75278 2.59597 6.48984 3.21009C6.02166 4.30356 5.70065 5.80374 5.63672 7.5H10.6133ZM5.63672 8.75H10.6133C10.5494 10.4463 10.2283 11.9465 9.76016 13.04C9.49722 13.6541 9.20017 14.1111 8.90216 14.4055C8.60682 14.6973 8.34491 14.7987 8.125 14.7987C7.90509 14.7987 7.64318 14.6973 7.34784 14.4055C7.04983 14.1111 6.75278 13.6541 6.48984 13.04C6.02166 11.9465 5.70064 10.4463 5.63672 8.75ZM4.3859 8.75H1.27803C1.52643 11.5065 3.40187 13.7939 5.93664 14.6444C5.71361 14.3143 5.51495 13.9388 5.34074 13.532C4.79589 12.2594 4.45021 10.5857 4.3859 8.75ZM10.3134 14.6444C10.5364 14.3143 10.7351 13.9388 10.9093 13.532C11.4541 12.2594 11.7998 10.5857 11.8641 8.75H14.972C14.7236 11.5065 12.8481 13.7939 10.3134 14.6444Z" fill="var(--fill-0, black)"/>
</g>
</svg>
