<svg preserveAspectRatio="none" width="100%" height="100%" overflow="visible" style="display: block;" viewBox="0 0 13.3333 11.3333" fill="none" xmlns="http://www.w3.org/2000/svg">
<g id="Vector">
<path d="M8.66667 4.5C9.21895 4.5 9.66667 4.05228 9.66667 3.5C9.66667 2.94771 9.21895 2.5 8.66667 2.5C8.11438 2.5 7.66667 2.94771 7.66667 3.5C7.66667 4.05228 8.11438 4.5 8.66667 4.5Z" fill="var(--fill-0, white)"/>
<path fill-rule="evenodd" clip-rule="evenodd" d="M0 2C0 0.89543 0.895431 0 2 0H11.3333C12.4379 0 13.3333 0.895431 13.3333 2V9.33333C13.3333 10.4379 12.4379 11.3333 11.3333 11.3333H2C0.89543 11.3333 0 10.4379 0 9.33333V2ZM2 1.33333C1.63181 1.33333 1.33333 1.63181 1.33333 2V6.46977L3.88736 4.17114C4.16007 3.92571 4.57984 3.94675 4.82663 4.21822L7.65197 7.3261L9.1605 5.56614C9.28135 5.42515 9.45553 5.34096 9.64109 5.33383C9.82665 5.3267 10.0068 5.39729 10.1381 5.5286L12 7.39052V2C12 1.63181 11.7015 1.33333 11.3333 1.33333H2ZM12 9.24421C11.9506 9.21568 11.9042 9.1803 11.8619 9.13808L9.70433 6.98047L8.17284 8.7672C8.0484 8.91238 7.8676 8.99714 7.6764 8.99993C7.4852 9.00272 7.30201 8.92328 7.17338 8.78179L4.28626 5.60595L1.44598 8.1622C1.41066 8.19399 1.37288 8.2213 1.33333 8.24418V9.33333C1.33333 9.70152 1.63181 10 2 10H11.3333C11.7015 10 12 9.70152 12 9.33333V9.24421Z" fill="var(--fill-0, white)"/>
</g>
</svg>
