<svg preserveAspectRatio="none" width="100%" height="100%" overflow="visible" style="display: block;" viewBox="0 0 16.25 16.25" fill="none" xmlns="http://www.w3.org/2000/svg">
<g id="Vector">
<path fill-rule="evenodd" clip-rule="evenodd" d="M8.125 1.25C4.32804 1.25 1.25 4.32804 1.25 8.125C1.25 11.922 4.32804 15 8.125 15C11.922 15 15 11.922 15 8.125C15 4.32804 11.922 1.25 8.125 1.25ZM0 8.125C0 3.63769 3.63769 0 8.125 0C12.6123 0 16.25 3.63769 16.25 8.125C16.25 12.6123 12.6123 16.25 8.125 16.25C3.63769 16.25 0 12.6123 0 8.125Z" fill="var(--fill-0, #727272)"/>
<path fill-rule="evenodd" clip-rule="evenodd" d="M8.125 3.75C8.47018 3.75 8.75 4.02982 8.75 4.375V8.75C8.75 9.09518 8.47018 9.375 8.125 9.375C7.77982 9.375 7.5 9.09518 7.5 8.75V4.375C7.5 4.02982 7.77982 3.75 8.125 3.75Z" fill="var(--fill-0, #727272)"/>
<path d="M8.125 12.2917C8.58524 12.2917 8.95833 11.9186 8.95833 11.4583C8.95833 10.9981 8.58524 10.625 8.125 10.625C7.66476 10.625 7.29167 10.9981 7.29167 11.4583C7.29167 11.9186 7.66476 12.2917 8.125 12.2917Z" fill="var(--fill-0, #727272)"/>
</g>
</svg>
