<svg preserveAspectRatio="none" width="100%" height="100%" overflow="visible" style="display: block;" viewBox="0 0 16.25 16.25" fill="none" xmlns="http://www.w3.org/2000/svg">
<g id="Union">
<path d="M11.0669 5.18306C11.311 5.42714 11.311 5.82286 11.0669 6.06694L9.00888 8.125L11.0669 10.1831C11.311 10.4271 11.311 10.8229 11.0669 11.0669C10.8229 11.311 10.4271 11.311 10.1831 11.0669L8.125 9.00888L6.06694 11.0669C5.82286 11.311 5.42714 11.311 5.18306 11.0669C4.93898 10.8229 4.93898 10.4271 5.18306 10.1831L7.24112 8.125L5.18306 6.06694C4.93898 5.82286 4.93898 5.42714 5.18306 5.18306C5.42714 4.93898 5.82286 4.93898 6.06694 5.18306L8.125 7.24112L10.1831 5.18306C10.4271 4.93898 10.8229 4.93898 11.0669 5.18306Z" fill="var(--fill-0, #9C9DA0)"/>
<path fill-rule="evenodd" clip-rule="evenodd" d="M0 8.125C0 3.63769 3.63769 0 8.125 0C12.6123 0 16.25 3.63769 16.25 8.125C16.25 12.6123 12.6123 16.25 8.125 16.25C3.63769 16.25 0 12.6123 0 8.125ZM8.125 1.25C4.32804 1.25 1.25 4.32804 1.25 8.125C1.25 11.922 4.32804 15 8.125 15C11.922 15 15 11.922 15 8.125C15 4.32804 11.922 1.25 8.125 1.25Z" fill="var(--fill-0, #9C9DA0)"/>
</g>
</svg>
