<svg preserveAspectRatio="none" width="100%" height="100%" overflow="visible" style="display: block;" viewBox="0 0 10.8898 10.8898" fill="none" xmlns="http://www.w3.org/2000/svg">
<g id="Union">
<path d="M10.7067 1.06694C10.9508 0.822864 10.9508 0.427136 10.7067 0.183058C10.4627 -0.0610194 10.0669 -0.0610194 9.82284 0.183058L5.44489 4.56101L1.06694 0.183058C0.822864 -0.0610194 0.427136 -0.0610194 0.183058 0.183058C-0.0610194 0.427136 -0.0610194 0.822864 0.183058 1.06694L4.56101 5.44489L0.183058 9.82284C-0.0610194 10.0669 -0.0610194 10.4627 0.183058 10.7067C0.427136 10.9508 0.822864 10.9508 1.06694 10.7067L5.44489 6.32878L9.82284 10.7067C10.0669 10.9508 10.4627 10.9508 10.7067 10.7067C10.9508 10.4627 10.9508 10.0669 10.7067 9.82284L6.32878 5.44489L10.7067 1.06694Z" fill="var(--fill-0, #212121)"/>
</g>
</svg>
