<svg preserveAspectRatio="none" width="100%" height="100%" overflow="visible" style="display: block;" viewBox="0 0 16.25 16.25" fill="none" xmlns="http://www.w3.org/2000/svg">
<g id="Vector">
<path fill-rule="evenodd" clip-rule="evenodd" d="M8.125 1.25C4.32804 1.25 1.25 4.32804 1.25 8.125C1.25 11.922 4.32804 15 8.125 15C11.922 15 15 11.922 15 8.125C15 4.32804 11.922 1.25 8.125 1.25ZM0 8.125C0 3.63769 3.63769 0 8.125 0C12.6123 0 16.25 3.63769 16.25 8.125C16.25 12.6123 12.6123 16.25 8.125 16.25C3.63769 16.25 0 12.6123 0 8.125Z" fill="black"/>
<path fill-rule="evenodd" clip-rule="evenodd" d="M8.125 3.125C8.47018 3.125 8.75 3.40482 8.75 3.75V7.5H12.5C12.8452 7.5 13.125 7.77982 13.125 8.125C13.125 8.47018 12.8452 8.75 12.5 8.75H8.125C7.77982 8.75 7.5 8.47018 7.5 8.125V3.75C7.5 3.40482 7.77982 3.125 8.125 3.125Z" fill="black"/>
</g>
</svg>
