<svg preserveAspectRatio="none" width="100%" height="100%" overflow="visible" style="display: block;" viewBox="0 0 20.26 18.0035" fill="none" xmlns="http://www.w3.org/2000/svg">
<path id="Vector" d="M10.13 18.0033C9.9997 18.0056 9.87142 17.9708 9.76001 17.9032C9.36001 17.6832 3.92346e-06 12.3633 3.92346e-06 5.63333C-0.00153741 4.33068 0.451101 3.06817 1.28 2.06326C2.104 1.05517 3.25245 0.364504 4.52917 0.10916C5.80589 -0.146184 7.13166 0.0496135 8.28 0.663237C9.00567 1.05544 9.63969 1.5975 10.14 2.25332C10.6501 1.57053 11.3091 1.01287 12.067 0.622832C12.8248 0.232796 13.6615 0.020541 14.5137 0.00222623C15.3658 -0.0160885 16.2109 0.160004 16.9848 0.517119C17.7587 0.874233 18.441 1.40301 18.98 2.06326C19.8089 3.06817 20.2615 4.33068 20.26 5.63333C20.26 12.3633 10.9 17.6332 10.5 17.9032C10.3888 17.9713 10.2604 18.0062 10.13 18.0033ZM5.63 1.4733C5.3546 1.47063 5.0797 1.53745 4.81 1.59329C3.88312 1.7791 3.04832 2.27795 2.44565 3.00625C1.84298 3.73456 1.5091 4.64801 1.5 5.59329C1.5 10.7633 8.44 15.3133 10.13 16.3433C11.81 15.3433 18.75 10.7633 18.75 5.59329C18.7552 4.63738 18.4278 3.70945 17.8239 2.96841C17.22 2.22738 16.3773 1.71933 15.44 1.5314C14.5028 1.34347 13.5293 1.4873 12.6864 1.93826C11.8436 2.38922 11.1838 3.11932 10.82 4.00332C10.7523 4.12864 10.6519 4.23323 10.5296 4.30618C10.4072 4.37913 10.2674 4.41763 10.125 4.41763C9.98256 4.41763 9.84276 4.37913 9.72042 4.30618C9.59807 4.23323 9.49773 4.12864 9.43 4.00332C9.12212 3.25005 8.59549 2.60629 7.91813 2.1553C7.24076 1.70432 6.44374 1.46679 5.63 1.4733Z" fill="var(--fill-0, #212121)"/>
</svg>
