<svg preserveAspectRatio="none" width="100%" height="100%" overflow="visible" style="display: block;" viewBox="0 0 16.25 16.3492" fill="none" xmlns="http://www.w3.org/2000/svg">
<g id="Union">
<path d="M1.25 8.125C1.25 4.32804 4.32804 1.25 8.125 1.25C11.922 1.25 15 4.32804 15 8.125C15 10.7273 13.5541 12.993 11.42 14.1606V12.8583C11.42 12.5131 11.1402 12.2333 10.795 12.2333C10.4499 12.2333 10.17 12.5131 10.17 12.8583V15.7242C10.17 16.0694 10.4499 16.3492 10.795 16.3492H13.75C14.0952 16.3492 14.375 16.0694 14.375 15.7242C14.375 15.379 14.0952 15.0992 13.75 15.0992H12.2956C14.6638 13.68 16.25 11.0883 16.25 8.125C16.25 3.63769 12.6123 0 8.125 0C3.63769 0 0 3.63769 0 8.125C0 12.6123 3.63769 16.25 8.125 16.25C8.47018 16.25 8.75 15.9702 8.75 15.625C8.75 15.2798 8.47018 15 8.125 15C4.32804 15 1.25 11.922 1.25 8.125Z" fill="var(--fill-0, #212121)"/>
<path d="M8.125 3.06946C8.47018 3.06946 8.75 3.34928 8.75 3.69446V4.31946H10C10.3452 4.31946 10.625 4.59928 10.625 4.94446C10.625 5.28964 10.3452 5.56946 10 5.56946H7.1875C6.93886 5.56946 6.7004 5.66823 6.52459 5.84405C6.34877 6.01986 6.25 6.25832 6.25 6.50696C6.25 6.7556 6.34877 6.99405 6.52459 7.16987C6.7004 7.34569 6.93886 7.44446 7.1875 7.44446H9.0625C9.64266 7.44446 10.1991 7.67493 10.6093 8.08516C11.0195 8.4954 11.25 9.0518 11.25 9.63196C11.25 10.2121 11.0195 10.7685 10.6093 11.1788C10.1991 11.589 9.64266 11.8195 9.0625 11.8195H8.75V12.4445C8.75 12.7896 8.47018 13.0695 8.125 13.0695C7.77982 13.0695 7.5 12.7896 7.5 12.4445V11.8195H6.25C5.90482 11.8195 5.625 11.5396 5.625 11.1945C5.625 10.8493 5.90482 10.5695 6.25 10.5695H9.0625C9.31114 10.5695 9.5496 10.4707 9.72541 10.2949C9.90123 10.1191 10 9.8806 10 9.63196C10 9.38332 9.90123 9.14486 9.72541 8.96905C9.5496 8.79323 9.31114 8.69446 9.0625 8.69446H7.1875C6.60734 8.69446 6.05094 8.46399 5.6407 8.05375C5.23047 7.64352 5 7.08712 5 6.50696C5 5.9268 5.23047 5.3704 5.6407 4.96016C6.05094 4.54993 6.60734 4.31946 7.1875 4.31946H7.5V3.69446C7.5 3.34928 7.77982 3.06946 8.125 3.06946Z" fill="var(--fill-0, #212121)"/>
</g>
</svg>
