<svg preserveAspectRatio="none" width="100%" height="100%" overflow="visible" style="display: block;" viewBox="0 0 14.5737 13.907" fill="none" xmlns="http://www.w3.org/2000/svg">
<g id="Vector">
<path d="M4.3394 2.40724C4.56877 1.86425 5.33825 1.86426 5.56763 2.40724L6.63008 4.92225C6.69763 5.08215 6.82488 5.20939 6.98477 5.27694L9.49979 6.3394C10.0428 6.56878 10.0428 7.33825 9.49979 7.56763L6.98477 8.63009C6.82488 8.69763 6.69763 8.82488 6.63008 8.98477L5.56763 11.4998C5.33825 12.0428 4.56877 12.0428 4.3394 11.4998L3.27694 8.98477C3.20939 8.82488 3.08215 8.69763 2.92225 8.63009L0.407236 7.56763C-0.135746 7.33825 -0.135745 6.56878 0.407237 6.3394L2.92225 5.27694C3.08215 5.20939 3.20939 5.08215 3.27694 4.92225L4.3394 2.40724Z" fill="url(#paint0_linear_0_3735)"/>
<path d="M10.3394 0.407236C10.5688 -0.135745 11.3382 -0.135745 11.5676 0.407236L11.8381 1.04755C11.9057 1.20744 12.0329 1.33469 12.1928 1.40223L12.8331 1.67273C13.3761 1.90211 13.3761 2.67158 12.8331 2.90096L12.1928 3.17146C12.0329 3.23901 11.9057 3.36625 11.8381 3.52615L11.5676 4.16646C11.3382 4.70944 10.5688 4.70944 10.3394 4.16646L10.0689 3.52615C10.0014 3.36625 9.87411 3.23901 9.71421 3.17146L9.0739 2.90096C8.53092 2.67158 8.53092 1.90211 9.0739 1.67273L9.71421 1.40223C9.87411 1.33469 10.0014 1.20744 10.0689 1.04755L10.3394 0.407236Z" fill="url(#paint1_linear_0_3735)"/>
<path d="M11.0061 8.40724C11.2354 7.86426 12.0049 7.86426 12.2343 8.40724L12.7028 9.51622C12.7703 9.67612 12.8976 9.80336 13.0575 9.87091L14.1665 10.3394C14.7094 10.5688 14.7094 11.3383 14.1665 11.5676L13.0575 12.0361C12.8976 12.1037 12.7703 12.2309 12.7028 12.3908L12.2343 13.4998C12.0049 14.0428 11.2354 14.0428 11.0061 13.4998L10.5376 12.3908C10.47 12.2309 10.3428 12.1037 10.1829 12.0361L9.0739 11.5676C8.53092 11.3383 8.53092 10.5688 9.0739 10.3394L10.1829 9.87091C10.3428 9.80336 10.47 9.67612 10.5376 9.51622L11.0061 8.40724Z" fill="url(#paint2_linear_0_3735)"/>
</g>
<defs>
<linearGradient id="paint0_linear_0_3735" x1="4.06545" y1="13.9128" x2="14.163" y2="2.46445" gradientUnits="userSpaceOnUse">
<stop stop-color="#7CDCFC"/>
<stop offset="1" stop-color="#6AEEF7"/>
</linearGradient>
<linearGradient id="paint1_linear_0_3735" x1="4.06545" y1="13.9128" x2="14.163" y2="2.46445" gradientUnits="userSpaceOnUse">
<stop stop-color="#7CDCFC"/>
<stop offset="1" stop-color="#6AEEF7"/>
</linearGradient>
<linearGradient id="paint2_linear_0_3735" x1="4.06545" y1="13.9128" x2="14.163" y2="2.46445" gradientUnits="userSpaceOnUse">
<stop stop-color="#7CDCFC"/>
<stop offset="1" stop-color="#6AEEF7"/>
</linearGradient>
</defs>
</svg>
