<svg preserveAspectRatio="none" width="100%" height="100%" overflow="visible" style="display: block;" viewBox="0 0 13 13" fill="none" xmlns="http://www.w3.org/2000/svg">
<g id="Vector">
<path fill-rule="evenodd" clip-rule="evenodd" d="M6.5 1C3.46243 1 1 3.46243 1 6.5C1 9.53757 3.46243 12 6.5 12C9.53757 12 12 9.53757 12 6.5C12 3.46243 9.53757 1 6.5 1ZM0 6.5C0 2.91015 2.91015 0 6.5 0C10.0899 0 13 2.91015 13 6.5C13 10.0899 10.0899 13 6.5 13C2.91015 13 0 10.0899 0 6.5Z" fill="var(--fill-0, #2D84D6)"/>
<path d="M4.25 6C4.66421 6 5 5.66421 5 5.25C5 4.83579 4.66421 4.5 4.25 4.5C3.83579 4.5 3.5 4.83579 3.5 5.25C3.5 5.66421 3.83579 6 4.25 6Z" fill="var(--fill-0, #2D84D6)"/>
<path d="M8.75 6C9.16421 6 9.5 5.66421 9.5 5.25C9.5 4.83579 9.16421 4.5 8.75 4.5C8.33579 4.5 8 4.83579 8 5.25C8 5.66421 8.33579 6 8.75 6Z" fill="var(--fill-0, #2D84D6)"/>
<path fill-rule="evenodd" clip-rule="evenodd" d="M3.74966 7.56718C3.9887 7.42892 4.29456 7.51062 4.43282 7.74966C4.87595 8.51579 5.59372 9 6.5 9C7.40628 9 8.12405 8.51579 8.56718 7.74966C8.70544 7.51062 9.0113 7.42892 9.25034 7.56718C9.48938 7.70544 9.57108 8.0113 9.43282 8.25034C8.83845 9.27796 7.81497 10 6.5 10C5.18503 10 4.16155 9.27796 3.56718 8.25034C3.42893 8.0113 3.51062 7.70544 3.74966 7.56718Z" fill="var(--fill-0, #2D84D6)"/>
</g>
</svg>
