<svg preserveAspectRatio="none" width="100%" height="100%" overflow="visible" style="display: block;" viewBox="0 0 16.8852 15.0029" fill="none" xmlns="http://www.w3.org/2000/svg">
<g id="Vector">
<path d="M12.1977 0.0029017C11.4701 0.00165198 10.7522 0.170207 10.1012 0.49516C9.45021 0.820112 8.88402 1.2925 8.44767 1.87474C7.85671 1.08844 7.03344 0.507896 6.09437 0.215248C5.15529 -0.0774003 4.14797 -0.0673312 3.21494 0.24403C2.2819 0.555392 1.4704 1.15228 0.895274 1.95023C0.320144 2.74818 0.0105051 3.70679 0.0101727 4.6904C0.0101727 10.3047 7.81024 14.7373 8.14227 14.9232C8.23558 14.9755 8.34073 15.0029 8.44767 15.0029C8.55461 15.0029 8.65977 14.9755 8.75308 14.9232C10.1877 14.083 11.5341 13.1006 12.772 11.9909C15.5013 9.53453 16.8852 7.07829 16.8852 4.6904C16.8838 3.44763 16.3895 2.25617 15.5107 1.37739C14.6319 0.498623 13.4404 0.00431026 12.1977 0.0029017Z" fill="#212121" fill-opacity="0.3"/>
<path d="M8.44167 15.0028C8.33308 15.0047 8.22618 14.9757 8.13334 14.9194C7.80001 14.736 3.26955e-06 10.3028 3.26955e-06 4.69444C-0.00128118 3.6089 0.375918 2.5568 1.06667 1.71938C1.75333 0.879309 2.71038 0.303753 3.77431 0.0909665C4.83824 -0.12182 5.94305 0.0413446 6.9 0.552697C7.50473 0.879532 8.03307 1.33125 8.45 1.87777C8.87511 1.30877 9.42428 0.844056 10.0558 0.519026C10.6873 0.193996 11.3846 0.0171175 12.0947 0.00185519C12.8048 -0.0134071 13.5091 0.133337 14.154 0.430932C14.7989 0.728528 15.3675 1.16918 15.8167 1.71938C16.5074 2.5568 16.8846 3.6089 16.8833 4.69444C16.8833 10.3028 9.08334 14.6944 8.75 14.9194C8.65734 14.9761 8.55031 15.0051 8.44167 15.0028ZM4.69167 1.22775C4.46216 1.22553 4.23308 1.28121 4.00833 1.32774C3.23593 1.48258 2.54027 1.89829 2.03804 2.50521C1.53582 3.11213 1.25758 3.87334 1.25 4.66108C1.25 8.96941 7.03333 12.7611 8.44167 13.6194C9.84167 12.7861 15.625 8.96941 15.625 4.66108C15.6293 3.86449 15.3565 3.09121 14.8533 2.47368C14.35 1.85615 13.6477 1.43277 12.8667 1.27617C12.0856 1.11956 11.2744 1.23942 10.572 1.61522C9.86965 1.99102 9.31979 2.59943 9.01667 3.3361C8.96023 3.44053 8.87661 3.52769 8.77466 3.58848C8.6727 3.64928 8.55621 3.68136 8.4375 3.68136C8.3188 3.68136 8.2023 3.64928 8.10035 3.58848C7.99839 3.52769 7.91477 3.44053 7.85834 3.3361C7.60176 2.70837 7.16291 2.17191 6.59844 1.79609C6.03396 1.42026 5.36979 1.22232 4.69167 1.22775Z" fill="var(--fill-0, white)"/>
</g>
</svg>
